<svg xmlns="http://www.w3.org/2000/svg" viewBox="0 0 64 64" role="img" aria-label="BleND favicon">
  <defs>
    <linearGradient id="bg" x1="0%" y1="0%" x2="100%" y2="100%">
      <stop offset="0%" stop-color="#2a2e38" />
      <stop offset="100%" stop-color="#171a21" />
    </linearGradient>
    <linearGradient id="accent" x1="0%" y1="0%" x2="100%" y2="100%">
      <stop offset="0%" stop-color="#5f8dff" />
      <stop offset="100%" stop-color="#a36cff" />
    </linearGradient>
  </defs>
  <rect x="4" y="4" width="56" height="56" rx="14" fill="url(#bg)" />
  <path
    d="M20 17h17.6c8.5 0 14 4.2 14 11.2 0 4.5-2.4 7.6-6.6 9.1 5.1 1.4 8.1 4.8 8.1 10.1 0 8-6 12.6-15.2 12.6H20V17zm8.9 8.2v8.2h8.2c3.4 0 5.6-1.5 5.6-4.2s-2-4-5.5-4h-8.3zm0 15.7V52h9.3c4 0 6.3-2 6.3-5.2 0-3.6-2.8-5.8-7.2-5.8h-8.4z"
    fill="url(#accent)"
  />
</svg>
